# xmcd
#
# Track frame offsets:
#	150
#	15132
#	25564
#	40164
#	56824
#	69898
#	84652
#	99133
#	114344
#	124925
#	145276
#
# Disc length: 2434 seconds
#
# Revision: 1
# Processed by: cddbd v1.5.2PL0 Copyright (c) Steve Scherf et al.
# Submitted via: audiograbber 1.83.01
#
DISCID=7e09800b
DTITLE=Golem - Pausa
DYEAR=2007
DGENRE=Indie Rock
TTITLE0=Horizontes 
TTITLE1=Trozos De Papel 
TTITLE2=Lejos De Aquí 
TTITLE3=Tocar El Sol 
TTITLE4=Hacia Ti 
TTITLE5=Eternidad 
TTITLE6=Congelarme 
TTITLE7=Nave Espacial 
TTITLE8=Mátame 
TTITLE9=Dentro De Mí 
TTITLE10=Restos De Lluvia
EXTD=http://www.sello-ovejanegra.cl
EXTT0=
EXTT1=
EXTT2=
EXTT3=
EXTT4=
EXTT5=
EXTT6=
EXTT7=
EXTT8=
EXTT9=
EXTT10=
PLAYORDER=
